<mxfile host="app.diagrams.net" modified="2023-08-22T00:45:13.475Z" agent="Mozilla/5.0 (Windows NT 10.0; Win64; x64) AppleWebKit/537.36 (KHTML, like Gecko) Chrome/116.0.0.0 Safari/537.36" etag="zdmFVYwKLOWN8zSBsNed" version="21.6.8" type="device">
  <diagram name="Strona-1" id="aHL4VDbJlrZ5aHHX_53E">
    <mxGraphModel dx="3693" dy="819" grid="1" gridSize="10" guides="1" tooltips="1" connect="1" arrows="1" fold="1" page="1" pageScale="1" pageWidth="2336" pageHeight="1654" math="0" shadow="0">
      <root>
        <mxCell id="0" />
        <mxCell id="1" parent="0" />
        <mxCell id="oar0knCRFVtc7JK7BiYn-1" value="rejestracja" style="rounded=0;whiteSpace=wrap;html=1;" parent="1" vertex="1">
          <mxGeometry x="230" y="120" width="80" height="40" as="geometry" />
        </mxCell>
        <mxCell id="oar0knCRFVtc7JK7BiYn-2" value="ekran czatów&lt;br&gt;(chat rooms)" style="rounded=0;whiteSpace=wrap;html=1;" parent="1" vertex="1">
          <mxGeometry x="710" y="120" width="80" height="40" as="geometry" />
        </mxCell>
        <mxCell id="oar0knCRFVtc7JK7BiYn-3" value="" style="endArrow=classic;html=1;rounded=0;exitX=1;exitY=0.5;exitDx=0;exitDy=0;entryX=0;entryY=0.5;entryDx=0;entryDy=0;" parent="1" source="oar0knCRFVtc7JK7BiYn-1" target="oar0knCRFVtc7JK7BiYn-2" edge="1">
          <mxGeometry width="50" height="50" relative="1" as="geometry">
            <mxPoint x="600" y="410" as="sourcePoint" />
            <mxPoint x="650" y="360" as="targetPoint" />
          </mxGeometry>
        </mxCell>
        <mxCell id="oar0knCRFVtc7JK7BiYn-4" value="zapis pary kluczy RSA do MMKV storage" style="rounded=0;whiteSpace=wrap;html=1;" parent="1" vertex="1">
          <mxGeometry x="370" y="330" width="130" height="50" as="geometry" />
        </mxCell>
        <mxCell id="oar0knCRFVtc7JK7BiYn-5" value="" style="endArrow=none;html=1;rounded=0;entryX=0;entryY=0.5;entryDx=0;entryDy=0;" parent="1" target="oar0knCRFVtc7JK7BiYn-4" edge="1">
          <mxGeometry width="50" height="50" relative="1" as="geometry">
            <mxPoint x="340" y="310" as="sourcePoint" />
            <mxPoint x="660" y="500" as="targetPoint" />
            <Array as="points">
              <mxPoint x="340" y="355" />
            </Array>
          </mxGeometry>
        </mxCell>
        <mxCell id="oar0knCRFVtc7JK7BiYn-6" value="zapis PINu&amp;nbsp; do SecureStore" style="rounded=0;whiteSpace=wrap;html=1;" parent="1" vertex="1">
          <mxGeometry x="370" y="400" width="130" height="50" as="geometry" />
        </mxCell>
        <mxCell id="oar0knCRFVtc7JK7BiYn-7" value="" style="endArrow=none;html=1;rounded=0;entryX=0;entryY=0.5;entryDx=0;entryDy=0;" parent="1" target="oar0knCRFVtc7JK7BiYn-6" edge="1">
          <mxGeometry width="50" height="50" relative="1" as="geometry">
            <mxPoint x="340" y="310" as="sourcePoint" />
            <mxPoint x="660" y="500" as="targetPoint" />
            <Array as="points">
              <mxPoint x="340" y="425" />
            </Array>
          </mxGeometry>
        </mxCell>
        <mxCell id="oar0knCRFVtc7JK7BiYn-8" value="tworzenie nowej bazy danych SQL" style="rounded=0;whiteSpace=wrap;html=1;" parent="1" vertex="1">
          <mxGeometry x="370" y="470" width="130" height="50" as="geometry" />
        </mxCell>
        <mxCell id="oar0knCRFVtc7JK7BiYn-9" value="" style="endArrow=none;html=1;rounded=0;entryX=0;entryY=0.5;entryDx=0;entryDy=0;" parent="1" target="oar0knCRFVtc7JK7BiYn-8" edge="1">
          <mxGeometry width="50" height="50" relative="1" as="geometry">
            <mxPoint x="340" y="310" as="sourcePoint" />
            <mxPoint x="140" y="540" as="targetPoint" />
            <Array as="points">
              <mxPoint x="340" y="495" />
            </Array>
          </mxGeometry>
        </mxCell>
        <mxCell id="oar0knCRFVtc7JK7BiYn-10" value="zalogowanie (przestawienie flagi isSignedIn: bool)" style="rounded=0;whiteSpace=wrap;html=1;" parent="1" vertex="1">
          <mxGeometry x="370" y="610" width="130" height="50" as="geometry" />
        </mxCell>
        <mxCell id="oar0knCRFVtc7JK7BiYn-11" value="" style="endArrow=none;html=1;rounded=0;entryX=0;entryY=0.5;entryDx=0;entryDy=0;" parent="1" target="oar0knCRFVtc7JK7BiYn-10" edge="1">
          <mxGeometry width="50" height="50" relative="1" as="geometry">
            <mxPoint x="340" y="310" as="sourcePoint" />
            <mxPoint x="660" y="490" as="targetPoint" />
            <Array as="points">
              <mxPoint x="340" y="635" />
            </Array>
          </mxGeometry>
        </mxCell>
        <mxCell id="oar0knCRFVtc7JK7BiYn-12" value="logowanie" style="rounded=0;whiteSpace=wrap;html=1;" parent="1" vertex="1">
          <mxGeometry x="230" y="670" width="80" height="40" as="geometry" />
        </mxCell>
        <mxCell id="oar0knCRFVtc7JK7BiYn-13" value="" style="endArrow=classic;html=1;rounded=0;exitX=1;exitY=0.5;exitDx=0;exitDy=0;entryX=0.5;entryY=1;entryDx=0;entryDy=0;" parent="1" source="oar0knCRFVtc7JK7BiYn-12" target="oar0knCRFVtc7JK7BiYn-2" edge="1">
          <mxGeometry width="50" height="50" relative="1" as="geometry">
            <mxPoint x="600" y="370" as="sourcePoint" />
            <mxPoint x="650" y="320" as="targetPoint" />
            <Array as="points">
              <mxPoint x="750" y="690" />
            </Array>
          </mxGeometry>
        </mxCell>
        <mxCell id="oar0knCRFVtc7JK7BiYn-14" value="dodawanie profilu użytkownika do bazy danych" style="rounded=0;whiteSpace=wrap;html=1;" parent="1" vertex="1">
          <mxGeometry x="370" y="540" width="130" height="50" as="geometry" />
        </mxCell>
        <mxCell id="oar0knCRFVtc7JK7BiYn-15" value="" style="endArrow=none;html=1;rounded=0;entryX=0;entryY=0.5;entryDx=0;entryDy=0;" parent="1" target="oar0knCRFVtc7JK7BiYn-14" edge="1">
          <mxGeometry width="50" height="50" relative="1" as="geometry">
            <mxPoint x="340" y="140" as="sourcePoint" />
            <mxPoint x="660" y="600" as="targetPoint" />
            <Array as="points">
              <mxPoint x="340" y="565" />
            </Array>
          </mxGeometry>
        </mxCell>
        <mxCell id="oar0knCRFVtc7JK7BiYn-16" value="uruchomienie aplikacji" style="rounded=0;whiteSpace=wrap;html=1;" parent="1" vertex="1">
          <mxGeometry x="-100" y="120" width="80" height="40" as="geometry" />
        </mxCell>
        <mxCell id="oar0knCRFVtc7JK7BiYn-17" value="" style="endArrow=classic;html=1;rounded=0;exitX=1;exitY=0.5;exitDx=0;exitDy=0;entryX=0;entryY=0.5;entryDx=0;entryDy=0;" parent="1" source="oar0knCRFVtc7JK7BiYn-16" target="oar0knCRFVtc7JK7BiYn-1" edge="1">
          <mxGeometry width="50" height="50" relative="1" as="geometry">
            <mxPoint x="180" y="450" as="sourcePoint" />
            <mxPoint x="230" y="400" as="targetPoint" />
          </mxGeometry>
        </mxCell>
        <mxCell id="oar0knCRFVtc7JK7BiYn-18" value="" style="endArrow=classic;html=1;rounded=0;entryX=0;entryY=0.5;entryDx=0;entryDy=0;" parent="1" target="oar0knCRFVtc7JK7BiYn-12" edge="1">
          <mxGeometry width="50" height="50" relative="1" as="geometry">
            <mxPoint x="170" y="140" as="sourcePoint" />
            <mxPoint x="230" y="400" as="targetPoint" />
            <Array as="points">
              <mxPoint x="170" y="690" />
            </Array>
          </mxGeometry>
        </mxCell>
        <mxCell id="oar0knCRFVtc7JK7BiYn-19" value="połączenie z serwerem backendu&lt;br&gt;(websocket)" style="rounded=0;whiteSpace=wrap;html=1;" parent="1" vertex="1">
          <mxGeometry x="30" y="160" width="120" height="60" as="geometry" />
        </mxCell>
        <mxCell id="oar0knCRFVtc7JK7BiYn-20" value="" style="endArrow=none;html=1;rounded=0;entryX=0;entryY=0.5;entryDx=0;entryDy=0;" parent="1" target="oar0knCRFVtc7JK7BiYn-19" edge="1">
          <mxGeometry width="50" height="50" relative="1" as="geometry">
            <mxPoint y="140" as="sourcePoint" />
            <mxPoint x="230" y="390" as="targetPoint" />
            <Array as="points">
              <mxPoint y="190" />
            </Array>
          </mxGeometry>
        </mxCell>
        <mxCell id="iHismm9-Y49V0ysEyNQP-1" value="generowanie pary kluczy RSA" style="rounded=0;whiteSpace=wrap;html=1;" vertex="1" parent="1">
          <mxGeometry x="370" y="260" width="130" height="50" as="geometry" />
        </mxCell>
        <mxCell id="iHismm9-Y49V0ysEyNQP-3" value="" style="endArrow=none;html=1;rounded=0;entryX=0;entryY=0.5;entryDx=0;entryDy=0;" edge="1" parent="1" target="iHismm9-Y49V0ysEyNQP-1">
          <mxGeometry width="50" height="50" relative="1" as="geometry">
            <mxPoint x="340" y="140" as="sourcePoint" />
            <mxPoint x="380" y="365" as="targetPoint" />
            <Array as="points">
              <mxPoint x="340" y="285" />
            </Array>
          </mxGeometry>
        </mxCell>
        <mxCell id="iHismm9-Y49V0ysEyNQP-4" value="generowanie klucza szyfrowania wiadomości (messaging key)" style="rounded=0;whiteSpace=wrap;html=1;" vertex="1" parent="1">
          <mxGeometry x="370" y="170" width="130" height="70" as="geometry" />
        </mxCell>
        <mxCell id="iHismm9-Y49V0ysEyNQP-5" value="" style="endArrow=none;html=1;rounded=0;entryX=0;entryY=0.5;entryDx=0;entryDy=0;" edge="1" parent="1" target="iHismm9-Y49V0ysEyNQP-4">
          <mxGeometry width="50" height="50" relative="1" as="geometry">
            <mxPoint x="340" y="140" as="sourcePoint" />
            <mxPoint x="280" y="315" as="targetPoint" />
            <Array as="points">
              <mxPoint x="340" y="205" />
            </Array>
          </mxGeometry>
        </mxCell>
        <mxCell id="iHismm9-Y49V0ysEyNQP-9" value="" style="endArrow=classic;html=1;rounded=0;exitX=1;exitY=0.5;exitDx=0;exitDy=0;entryX=1;entryY=0.25;entryDx=0;entryDy=0;fillColor=#dae8fc;strokeColor=#6c8ebf;" edge="1" parent="1" source="iHismm9-Y49V0ysEyNQP-4" target="oar0knCRFVtc7JK7BiYn-14">
          <mxGeometry width="50" height="50" relative="1" as="geometry">
            <mxPoint x="500" y="460" as="sourcePoint" />
            <mxPoint x="550" y="410" as="targetPoint" />
            <Array as="points">
              <mxPoint x="550" y="280" />
              <mxPoint x="550" y="470" />
            </Array>
          </mxGeometry>
        </mxCell>
        <mxCell id="iHismm9-Y49V0ysEyNQP-10" value="" style="endArrow=classic;html=1;rounded=0;exitX=1;exitY=0.5;exitDx=0;exitDy=0;entryX=1;entryY=0.75;entryDx=0;entryDy=0;fillColor=#dae8fc;strokeColor=#6c8ebf;" edge="1" parent="1" source="iHismm9-Y49V0ysEyNQP-1" target="oar0knCRFVtc7JK7BiYn-14">
          <mxGeometry width="50" height="50" relative="1" as="geometry">
            <mxPoint x="510" y="215" as="sourcePoint" />
            <mxPoint x="510" y="563" as="targetPoint" />
            <Array as="points">
              <mxPoint x="530" y="330" />
              <mxPoint x="530" y="530" />
            </Array>
          </mxGeometry>
        </mxCell>
        <mxCell id="iHismm9-Y49V0ysEyNQP-11" value="" style="endArrow=classic;html=1;rounded=0;exitX=1;exitY=0.25;exitDx=0;exitDy=0;entryX=1;entryY=0.5;entryDx=0;entryDy=0;fillColor=#dae8fc;strokeColor=#6c8ebf;" edge="1" parent="1" source="iHismm9-Y49V0ysEyNQP-4" target="oar0knCRFVtc7JK7BiYn-4">
          <mxGeometry width="50" height="50" relative="1" as="geometry">
            <mxPoint x="530" y="160" as="sourcePoint" />
            <mxPoint x="530" y="508" as="targetPoint" />
            <Array as="points">
              <mxPoint x="580" y="240" />
              <mxPoint x="580" y="310" />
            </Array>
          </mxGeometry>
        </mxCell>
      </root>
    </mxGraphModel>
  </diagram>
</mxfile>
